<svg width="226" height="304" viewBox="0 0 226 304" fill="none" xmlns="http://www.w3.org/2000/svg">
<circle cx="100" cy="190" r="100" fill="url(#paint0_linear_126_51)"/>
<path d="M36.7676 101.609C35.8887 95.1641 37.9395 91.9414 42.9199 91.9414H56.1035C61.4746 91.9414 64.4531 94.334 65.0391 99.1191L82.3242 230.223C83.1055 235.984 83.8379 243.65 84.5215 253.221C85.2051 262.791 85.5469 270.604 85.5469 276.658H86.1328C88.6719 270.506 92.627 262.498 97.998 252.635C103.467 242.771 107.715 235.301 110.742 230.223L188.672 99.1191C191.504 94.334 195.557 91.9414 200.83 91.9414H217.529C222.607 91.9414 223.193 95.1641 219.287 101.609L103.711 293.064C100.098 299.021 96.1914 302 91.9922 302H71.4844C67.2852 302 64.7461 299.021 63.8672 293.064L36.7676 101.609Z" fill="white"/>
<defs>
<linearGradient id="paint0_linear_126_51" x1="100" y1="90" x2="100" y2="290" gradientUnits="userSpaceOnUse">
<stop stop-color="#DA1111"/>
<stop offset="1" stop-color="#0C6AAD"/>
</linearGradient>
</defs>
</svg>
